<svg width="128" height="128" viewBox="0 0 128 128" xmlns="http://www.w3.org/2000/svg">
  <path style="stroke:none;fill-rule:nonzero;fill:#efcca3;fill-opacity:1" d="M107.398 50.898c-.199-4.398.403-8.296-1.597-11.597C101 31.1 89 26.3 65 26.3v.7h-.5.5v-.7c-24 0-36.602 4.802-41.398 13.098-1.903 3.403-1.704 7.204-2 11.602-.204 3.5-1.801 7.2-1.102 11.2.8 5.198 1.102 10.402 1.898 15.198.602 3.903 6 7.204 6.5 10.903 1.403 10.199 12 14.898 36 14.898V104h-.597H65v-.8c24 0 34.2-4.7 35.5-14.9.5-3.8 5.5-7 6.102-10.902.796-4.796 1.097-10 1.898-15.199.7-4-.898-7.8-1.102-11.3Zm0 0"/>
  <path style="stroke:none;fill-rule:nonzero;fill:#ccac8d;fill-opacity:1" d="M64.602 54.5c4.296.102 7.296 2.8 10.097 5.3 3.301 2.9 8.903 4.9 11.2 7.4 2.3 2.5 5.3 5 6.402 8.902C93.398 80 93.699 85 93.699 86.3c0 1.3.7 1 2.7 0 4.703-2.301 9.902-8.5 9.902-8.5-.602 3.898-5.7 7.398-6.2 11.097C98.899 99.102 89 104 64.5 104h-.102H65"/>
  <path style="stroke:none;fill-rule:nonzero;fill:#ccac8d;fill-opacity:1" d="M80.398 46.7c.903 3.1 4.102 13.6-2.097 10.1 0 0 2.597 1.5 4.199 7.2 1.7 5.7 5.8 6.398 5.8 6.398s6.7 1.301 11.7-3c4.2-3.597 4.898-10 3.102-14.898-1.801-4.8-5-6.3-9.704-7.3-4.699-1.098-14.097-2-13 1.5Zm0 0"/>
  <path style="stroke:none;fill-rule:nonzero;fill:#000;fill-opacity:1" d="M101.102 58.102c0 4.859-3.942 8.796-8.801 8.796-4.86 0-8.801-3.937-8.801-8.796a8.8 8.8 0 0 1 8.8-8.801 8.8 8.8 0 0 1 8.802 8.8Zm0 0"/>
  <path style="stroke:none;fill-rule:nonzero;fill:#fff;fill-opacity:1" d="M92.3 54.2a2.301 2.301 0 1 1-4.602 0 2.301 2.301 0 0 1 4.602 0Zm0 0"/>
  <path style="stroke:none;fill-rule:nonzero;fill:#efcca3;fill-opacity:1" d="M78.898 57.7s7.903 5.402 12.204 10.698C95.398 73.7 95.3 74.7 95.3 74.7l-3.102 1.403s-4.398-8.301-9.8-11.403C76.898 61.602 76.3 59 76.3 59Zm0 0"/>
  <path style="stroke:none;fill-rule:nonzero;fill:#ccac8d;fill-opacity:1" d="M64.898 54.5c-4.296.102-7.5 2.8-10.398 5.3-3.3 2.9-9.102 4.9-11.398 7.4-2.301 2.5-5.403 5-6.5 8.902C35.5 80 35.102 85 35.102 86.3c0 1.3.199 1.398-2.704 0-4.699-2.2-9.898-8.5-9.898-8.5.602 3.898 5.7 7.398 6.2 11.097C30.101 99.102 40 104 64.5 104h.5"/>
  <path style="stroke:none;fill-rule:nonzero;fill:#56332b;fill-opacity:1" d="M88.102 71.398C83.3 65.5 75.602 60 64.898 60h-.097c-10.7 0-18.403 5.5-23.2 11.398C36.602 77.5 37 79.898 37 85.7c0 21 7.398 15 12.3 17.602 5 2.5 10.2 1.699 15.5 1.699h.098c5.403 0 10.5.7 15.5-1.8 4.903-2.5 12.301 3.698 12.301-17.302.102-5.796.403-8.398-4.597-14.5Zm0 0"/>
  <path style="stroke:none;fill-rule:nonzero;fill:#442823;fill-opacity:1" d="M64.398 65.2s-.699 9.698-2.097 11.6l2.597-.6Zm0 0"/>
  <path style="stroke:none;fill-rule:nonzero;fill:#442823;fill-opacity:1" d="M65.102 65.2s.699 9.698 2.097 11.6l-2.597-.6Zm0 0"/>
  <path style="stroke:none;fill-rule:nonzero;fill:#56332b;fill-opacity:1" d="M56.7 62.898c-1-2.296 2.6-6 8.3-6.097 5.7 0 9.3 3.699 8.3 6.097-1 2.403-4.6 3.102-8.3 3.204-3.602-.102-7.3-.801-8.3-3.204Zm0 0"/>
  <path style="stroke:none;fill-rule:nonzero;fill:#000;fill-opacity:1" d="M65 65.2c0-.4 3.398-.5 5.2-1.7 0 0-3.7 1.2-4.5.7-.802-.4-1-1.598-1-1.598s-.302 1.199-.9 1.597c-.698.403-4.902-.699-4.902-.699s5.602 1.398 5.602 1.7c0 .3-.102 1.3-.102 2 0 2.5 0 8.698.403 9.198.597.903.398-6.699.398-9.199-.097-.8-.097-1.597-.199-2Zm0 0"/>
  <path style="stroke:none;fill-rule:nonzero;fill:#7f4a41;fill-opacity:1" d="M65.2 78.602c1.698 0 4.698 1.199 7.402 3.097-2.602-2.898-5.704-4.898-7.403-4.898-1.8 0-5.597 2.199-8.3 5.398 2.8-2.199 6.402-3.597 8.3-3.597Zm0 0"/>
  <path style="stroke:none;fill-rule:nonzero;fill:#442823;fill-opacity:1" d="M64.5 96.3c-3.8 0-7.5-1.198-10.898-2.1-.704-.2-1.403.3-2.102.1-6.3-2-11.398-5.402-14.5-9.698v1c0 21 7.398 15.097 12.3 17.597 5 2.5 10.2 1.7 15.5 1.7h.098c5.403 0 10.5.703 15.5-1.797 4.903-2.5 12.301 3.597 12.301-17.403 0-.8 0-1.597.102-2.3C89.898 88.101 84.6 91.8 78 94c-.602.2-2-.3-2.602-.2-3.597 1.2-6.796 2.5-10.898 2.5Zm0 0"/>
  <path style="stroke:none;fill-rule:nonzero;fill:#442823;fill-opacity:1" d="M55 85s-2.5 7.5-.8 10.8l-2.302-1S53.602 87.2 55 85Zm19.8 0s2.5 7.5.802 10.8l2.296-1s-1.796-7.6-3.097-9.8Zm0 0"/>
  <path style="stroke:none;fill-rule:nonzero;fill:#ccac8d;fill-opacity:1" d="M48.602 46.7c-.903 3.1-4.102 13.6 2.097 10.1 0 0-2.597 1.5-4.199 7.2-1.602 5.7-5.8 6.398-5.8 6.398s-6.7 1.301-11.7-3c-4.2-3.597-4.898-10-3.102-14.898 1.801-4.898 5-6.3 9.704-7.3 4.699-1.098 14-2 13 1.5Zm0 0"/>
  <path style="stroke:none;fill-rule:nonzero;fill:#000;fill-opacity:1" d="M64.898 76.8c2.704 0 11.102 5.802 11.204 12.9v-.4c0-7.402-6.801-13.3-11.204-13.3C60.5 76 53.7 82 53.7 89.3v.4c.102-7.098 8.5-12.9 11.2-12.9Zm0 0"/>
  <path style="stroke:none;fill-rule:nonzero;fill:#331712;fill-opacity:1" d="M67.484 61.3c-.207-.8-.722-1.362-1.152-1.25-.426.11-.605.848-.398 1.653.207.8.722 1.363 1.148 1.25.43-.11.61-.848.402-1.652Zm-4.332.442c.246-.789.102-1.535-.32-1.668s-.965.406-1.207 1.196c-.246.792-.105 1.539.316 1.671.422.13.965-.406 1.211-1.199Zm0 0"/>
  <path style="stroke:none;fill-rule:nonzero;fill:#000;fill-opacity:1" d="M46 58.102c0 4.859-3.941 8.796-8.8 8.796-4.86 0-8.802-3.937-8.802-8.796A8.8 8.8 0 0 1 37.2 49.3a8.8 8.8 0 0 1 8.8 8.8Zm0 0"/>
  <path style="stroke:none;fill-rule:nonzero;fill:#fff;fill-opacity:1" d="M41.8 54.2a2.301 2.301 0 1 1-4.602 0 2.301 2.301 0 0 1 4.602 0Zm0 0"/>
  <path style="stroke:none;fill-rule:nonzero;fill:#7f4a41;fill-opacity:1" d="M67.5 58.2c0-.098-2.3 1-2.898 1.1-.602-.1-2.903-1.198-2.903-1.1H67.5Zm0 0"/>
  <path style="stroke:none;fill-rule:nonzero;fill:#efcca3;fill-opacity:1" d="M50 57.7s-7.898 5.402-12.2 10.698C33.5 73.7 33.603 74.7 33.603 74.7l3.097 1.403s4.402-8.303 9.8-11.404C51.898 61.602 52.602 59 52.602 59Zm0 0"/>
  <path style="stroke:none;fill-rule:nonzero;fill:#ccac8d;fill-opacity:1" d="M32.7 41.7S30 49.101 24 52.2c0 0 9.398-1.098 8.7-10.5Zm63.1 0s2.7 7.402 8.7 10.5c0 0-9.398-1.098-8.7-10.5ZM78.7 55.5s-5.9-6.2-13.802-6.398h.204C57.102 49.3 51.3 55.5 51.3 55.5c6.898-4.8 12.8-4.7 13.8-4.7-.101 0 6.7-.1 13.598 4.7Zm-6.9-13s-3-4.2-7-4.3h.2c-3 .1-6.898 4.3-6.898 4.3C61.5 39.2 65 39.3 65 39.3s3.3-.1 6.8 3.2ZM37.2 73.2s-4.7 2.3-8.098.902H29c-3-1.704-4.5-6.801-4.5-6.801s3 9 12.7 5.898Zm54.8 0s4.7 2.3 8.102.902c4-1.704 4.597-6.801 4.597-6.801s-3 9-12.699 5.898Zm0 0"/>
  <path style="stroke:none;fill-rule:nonzero;fill:#ccac8d;fill-opacity:1" d="M42.602 41.2c2.597-.5 6.898-.598 10.296.5 4.301 1.5.801 7 1.704 7.3.898.3 2.097-3.8 10.097-3.398 8.102.398 9 4 10.102 3.398 1.097-.602-1.102-10 11-7.8 0 0-12.7-3.4-12.102 5.8 0 0-7.3-5.602-17.5-.602.102 0 2.7-8.597-13.597-5.199Zm44.296 0c.204 0 .301.1.403.1.097 0-.102-.1-.403-.1ZM39.102 28.898S28.3 42.5 26.699 47.7C25.102 53 23.9 74.7 22.5 77.801l-5-21.403 9.2-22.296Zm50.796 0S100.7 42.5 102.301 47.7c1.597 5.301 2.8 27 4.199 30.102l5-21.403-9.2-22.296Zm0 0"/>
  <path style="stroke:none;fill-rule:nonzero;fill:#56332b;fill-opacity:1" d="M89.398 28.898s11.602 9.704 15 20.903c3.403 11.199 2 24.8 4.602 26.5 3.7 2.398 7.898-11.903 9.3-13.403 2.2-2.398 9.5-8.5 10-9.597.5-1.102-14.8-17.801-21.5-21.102-8.1-3.8-18.1-4.097-17.402-3.3Zm0 0"/>
  <path style="stroke:none;fill-rule:nonzero;fill:#442823;fill-opacity:1" d="M99.3 34.898s13.7 17.5 13.5 39.301L118.3 63c-.1 0-4.902-14.3-19-28.102Zm0 0"/>
  <path style="stroke:none;fill-rule:nonzero;fill:#56332b;fill-opacity:1" d="M39.102 28.898s-11.602 9.704-15 20.903c-3.403 11.199-2 24.8-4.602 26.5-3.7 2.398-7.898-11.903-9.3-13.403C8 60.5.7 54.398.2 53.301-.3 52.199 15 35.5 21.7 32.199c8.1-3.8 18.1-4.097 17.402-3.3Zm0 0"/>
  <path style="stroke:none;fill-rule:nonzero;fill:#442823;fill-opacity:1" d="M29.2 34.898S15.5 52.398 15.7 74.2L10.3 63s4.802-14.3 18.9-28.102Zm0 0"/>
  <path style="stroke:none;fill-rule:nonzero;fill:#ccac8d;fill-opacity:1" d="M21.8 74.602s1 5.398 2.598 7.097c1.602 1.7.5-1.3.5-1.3S23.2 79.5 23.5 72.601c.3-6.903-1.7 2-1.7 2Zm85.302 0s-1 5.398-2.602 7.097c-1.602 1.7-.5-1.3-.5-1.3s1.7-.899 1.398-7.797c-.296-6.903 1.704 2 1.704 2Zm0 0"/>
  <path style="stroke:none;fill-rule:nonzero;fill:#442823;fill-opacity:1" d="M55.3 70.5a.802.802 0 0 1-1.6 0 .802.802 0 0 1 1.6 0Zm-4.6 4.8a.8.8 0 1 1-1.598 0 .799.799 0 1 1 1.597 0Zm-1.5-4.8a.8.8 0 1 1-1.598 0 .799.799 0 1 1 1.597 0Zm25.6 0a.802.802 0 0 1-1.6 0 .802.802 0 0 1 1.6 0Zm4.598 4.8a.799.799 0 1 1-1.597 0 .8.8 0 1 1 1.597 0Zm1.5-4.8a.799.799 0 1 1-1.597 0 .8.8 0 1 1 1.597 0Zm0 0"/>
</svg>
