<?xml version="1.0" encoding="UTF-8" standalone="no"?>
<svg
   width="128px"
   height="128px"
   viewBox="0 0 128 128"
   version="1.1"
   id="svg233"
   sodipodi:docname="pug-plain.svg"
   inkscape:version="1.1.2 (b8e25be8, 2022-02-05)"
   xmlns:inkscape="http://www.inkscape.org/namespaces/inkscape"
   xmlns:sodipodi="http://sodipodi.sourceforge.net/DTD/sodipodi-0.dtd"
   xmlns="http://www.w3.org/2000/svg"
   xmlns:svg="http://www.w3.org/2000/svg">
  <defs
     id="defs237" />
  <sodipodi:namedview
     id="namedview235"
     pagecolor="#ffffff"
     bordercolor="#666666"
     borderopacity="1.0"
     inkscape:pageshadow="2"
     inkscape:pageopacity="0.0"
     inkscape:pagecheckerboard="0"
     showgrid="false"
     inkscape:zoom="18.841777"
     inkscape:cx="63.980163"
     inkscape:cy="64.059774"
     inkscape:window-width="2560"
     inkscape:window-height="1298"
     inkscape:window-x="0"
     inkscape:window-y="25"
     inkscape:window-maximized="1"
     inkscape:current-layer="svg233" />
  <path
     id="path140"
     style="fill:#eecca1;fill-opacity:1;fill-rule:nonzero;stroke:none"
     d="m 65,26.300781 c -24,0 -36.601562,4.800781 -41.398438,13.097657 -1.902342,3.402343 -1.703123,7.203124 -2,11.601562 -0.203123,3.5 -1.800781,7.199219 -1.101562,11.199219 0.800781,5.199219 1.101562,10.402343 1.898438,15.199219 0.04059,0.263317 0.106204,0.523103 0.1875,0.78125 -0.02885,-0.126268 -0.06633,-0.251813 -0.08594,-0.378907 0,0 5.199219,6.300781 9.898438,8.5 2.902343,1.398438 2.703124,1.300781 2.703124,0 C 35.101582,85 35.5,80 36.601562,76.101562 37.23449,73.851411 38.539036,72.074768 39.966797,70.488281 38.327115,70.689707 33.186087,70.999126 29,67.398438 c -4.199219,-3.597657 -4.898438,-10 -3.101562,-14.898438 1.800781,-4.898438 5,-6.300781 9.703124,-7.300781 2.05591,-0.480225 4.992982,-0.923404 7.5625,-0.976563 3.303667,-0.06835 6,0.507813 5.4375,2.476563 -0.902343,3.101562 -4.101562,13.601562 2.097657,10.101562 0,0 -2.597657,1.5 -4.199219,7.199219 -0.08969,0.319172 -0.19013,0.617686 -0.294922,0.90625 2.668596,-1.579621 6.050605,-3.134719 8.294922,-5.105469 2.830627,-2.441511 5.954774,-5.066808 10.101562,-5.283203 V 54.5 c 0.05041,0.0012 0.09838,0.0079 0.148438,0.0098 0.04999,-0.0019 0.09815,-0.0086 0.148438,-0.0098 v 0.01758 c 4.137285,0.216667 7.065687,2.841836 9.800781,5.283203 2.231793,1.959753 5.498789,3.509527 8.101562,5.080078 C 82.695146,64.599653 82.592458,64.310106 82.5,64 c -1.601562,-5.699219 -4.199219,-7.199219 -4.199219,-7.199219 6.199219,3.5 3,-7 2.097657,-10.101562 -0.617436,-1.96875 2.086061,-2.54491 5.40625,-2.476563 2.582368,0.05316 5.537841,0.496338 7.59375,0.976563 4.703124,1 7.902342,2.5 9.703122,7.300781 1.79688,4.898438 1.09766,11.300781 -3.10156,14.898438 -4.233915,3.641828 -9.43838,3.284306 -11.009766,3.083984 1.401445,1.587827 2.674655,3.366457 3.310547,5.61914 C 93.398438,80 93.699219,85 93.699219,86.300781 c 0,1.300781 0.699219,1 2.699219,0 4.703122,-2.300781 9.902342,-8.5 9.902342,-8.5 -0.19907,1.2901 -0.90745,2.535275 -1.76172,3.759766 0.9934,-1.334427 1.83692,-2.698733 2.0625,-4.162109 0.79688,-4.796876 1.09766,-10 1.89844,-15.199219 0.69922,-4 -0.89844,-7.800781 -1.10156,-11.300781 C 107.19922,46.5 107.80078,42.601562 105.80078,39.300781 101,31.101562 89,26.300781 65,26.300781 Z m -0.101562,28.216797 c -0.04966,-0.0026 -0.09843,-0.0059 -0.148438,-0.0078 -0.04995,0.0019 -0.09879,0.0052 -0.148438,0.0078 l 0.01953,2.296875 c 0.09404,-0.0043 0.187966,-0.0074 0.283203,-0.0098 z M 64.800781,38.199219 H 64.898438 65 c -0.02843,9.62e-4 -0.05735,0.0042 -0.08594,0.0059 C 68.856862,38.382043 71.800781,42.5 71.800781,42.5 68.300781,39.199219 65,39.300781 65,39.300781 c 0,0 -3.5,-0.101562 -6.898438,3.199219 10e-7,0 3.824489,-4.118127 6.8125,-4.294922 -0.03796,-0.0017 -0.07514,-0.0049 -0.113281,-0.0059 z M 48.9375,40.40625 c 9.209166,-0.128617 7.347412,5.992185 7.261719,5.992188 10.199219,-5 17.5,0.601562 17.5,0.601562 C 73.101562,37.800781 85.800781,41.199219 85.800781,41.199219 73.699219,39 75.898438,48.398438 74.800781,49 c -1.101562,0.601562 -2,-3 -10.101562,-3.398438 -8,-0.402343 -9.199219,3.699219 -10.097657,3.398438 -0.902343,-0.300781 2.597657,-5.800781 -1.703124,-7.300781 -3.398438,-1.097657 -7.699219,-1 -10.296876,-0.5 2.546389,-0.531006 4.630537,-0.769151 6.335938,-0.792969 z m 15.960938,8.695312 H 65 65.101562 c -0.0341,8.5e-4 -0.06754,0.0028 -0.101562,0.0039 C 72.850895,49.355264 78.699219,55.5 78.699219,55.5 71.800781,50.699219 65,50.800781 65.101562,50.800781 c -1,0 -6.902343,-0.101562 -13.800781,4.699219 0,0 5.752063,-6.145441 13.699219,-6.394531 -0.03406,-0.0011 -0.06743,-0.003 -0.101562,-0.0039 z m -27.699219,0.199219 c -4.859375,0 -8.800781,3.9375 -8.800781,8.800781 0,4.859376 3.941406,8.796876 8.800781,8.796876 4.859375,0 8.800781,-3.9375 8.800781,-8.796876 0,-4.863281 -3.941406,-8.800781 -8.800781,-8.800781 z m 55.101562,0 c -4.859375,0 -8.800781,3.9375 -8.800781,8.800781 0,4.859376 3.941406,8.796876 8.800781,8.796876 4.859375,0 8.800779,-3.9375 8.800779,-8.796876 0,-4.863281 -3.941404,-8.800781 -8.800779,-8.800781 z M 39.5,51.898438 c 1.269531,0 2.300781,1.03125 2.300781,2.300781 0,1.269531 -1.03125,2.300781 -2.300781,2.300781 -1.269531,0 -2.300781,-1.03125 -2.300781,-2.300781 0,-1.269531 1.03125,-2.300781 2.300781,-2.300781 z m 50.5,0 c 1.269531,0 2.300781,1.03125 2.300781,2.300781 C 92.300781,55.46875 91.269531,56.5 90,56.5 c -1.269531,0 -2.300781,-1.03125 -2.300781,-2.300781 0,-1.269531 1.03125,-2.300781 2.300781,-2.300781 z m -25.369141,6.300781 0.0098,1.091797 c 0.07224,-0.01483 0.160797,-0.0409 0.267578,-0.07617 l -0.002,-1.015625 z m -7.914062,2.941406 c -6.594862,1.905145 -11.627831,5.969553 -15.115235,10.257813 -4.643129,5.66607 -4.62305,8.239624 -4.597656,13.208984 3.101953,4.294201 8.198083,7.694238 14.496094,9.693359 0.09361,0.02667 0.187412,0.01869 0.28125,0.02344 0.149083,-0.598391 0.161199,-0.555826 0.486328,-1.042969 0.309757,-1.280516 0.822711,-3.309673 1.517578,-5.388672 0.778442,-6.533722 6.784636,-11.699099 10.894532,-11.875 -0.281061,-1.477595 -0.28125,-6.600123 -0.28125,-8.818359 0,-0.342463 0.02397,-0.755723 0.04883,-1.125 -3.419728,-0.157169 -6.799238,-0.896423 -7.748047,-3.175781 -0.231367,-0.531422 -0.212707,-1.137909 0.01758,-1.757813 z m -2.931641,26.751953 c -0.05521,0.463402 -0.08594,0.932453 -0.08594,1.408203 v 0.398438 c 0.0184,-1.286061 0.311074,-2.529015 0.791015,-3.703125 -0.237646,0.543711 -0.472833,1.201622 -0.705078,1.896484 z M 73.333984,61.228516 c 0.182816,0.583284 0.180733,1.156759 -0.0332,1.669922 -0.990422,2.379334 -4.533602,3.085237 -8.195312,3.197265 0.02393,0.339605 0.04683,0.718789 0.09375,1.103516 0,1.998211 0.125182,7.245242 -0.128907,8.814453 4.158727,0.138058 10.292748,5.343339 10.966797,12.076172 0.760922,2.331901 1.402224,4.840922 1.675782,5.955078 C 77.819961,94.0404 77.918309,94.027054 78,94 84.55345,91.816809 89.81859,88.154295 92.734375,83.5 92.766464,79.258241 92.352236,76.585583 88.101562,71.398438 87.630146,70.819236 87.123119,70.246375 86.595703,69.679688 85.776709,69.199458 84.799699,68.418329 83.927734,67.107422 81.0269,64.618345 77.49901,62.490679 73.333984,61.228516 Z m -24.935546,8.470703 c 0.445312,0 0.800781,0.359375 0.800781,0.800781 0,0.441406 -0.355469,0.800781 -0.800781,0.800781 -0.441407,0 -0.796876,-0.359375 -0.796876,-0.800781 0,-0.441406 0.355469,-0.800781 0.796876,-0.800781 z m 6.101562,0 c 0.441406,0 0.800781,0.359375 0.800781,0.800781 0,0.441406 -0.359375,0.800781 -0.800781,0.800781 -0.441406,0 -0.800781,-0.359375 -0.800781,-0.800781 0,-0.441406 0.359375,-0.800781 0.800781,-0.800781 z m 19.5,0 c 0.441406,0 0.800781,0.359375 0.800781,0.800781 0,0.441406 -0.359375,0.800781 -0.800781,0.800781 -0.441406,0 -0.800781,-0.359375 -0.800781,-0.800781 0,-0.441406 0.359375,-0.800781 0.800781,-0.800781 z m 6.101562,0 c 0.441407,0 0.796876,0.359375 0.796876,0.800781 0,0.441406 -0.355469,0.800781 -0.796876,0.800781 -0.445312,0 -0.800781,-0.359375 -0.800781,-0.800781 0,-0.441406 0.355469,-0.800781 0.800781,-0.800781 z M 49.898438,74.5 c 0.445312,0 0.800781,0.359375 0.800781,0.800781 0,0.441407 -0.355469,0.800781 -0.800781,0.800781 -0.441407,0 -0.796876,-0.359374 -0.796876,-0.800781 0,-0.441406 0.355469,-0.800781 0.796876,-0.800781 z m 28.703124,0 c 0.441407,0 0.796876,0.359375 0.796876,0.800781 0,0.441407 -0.355469,0.800781 -0.796876,0.800781 -0.445312,0 -0.800781,-0.359374 -0.800781,-0.800781 0,-0.441406 0.355469,-0.800781 0.800781,-0.800781 z m -13.703124,2.300781 c -2.135988,0 -7.825913,3.638724 -10.164063,8.671875 C 54.823668,85.296174 54.912598,85.137451 55,85 c 0,0 -1.776869,5.375206 -1.289062,9.027344 0.0097,0.01015 0.01961,0.02036 0.0293,0.03125 0.0625,0.07031 0.125071,0.140558 0.1875,0.210937 0.0036,0.0036 0.0083,0.0082 0.01172,0.01172 0.0042,0.0043 0.0078,0.0076 0.01172,0.01172 3.303677,0.88968 6.875461,2.007812 10.548828,2.007812 4.101562,0 7.300781,-1.300781 10.898438,-2.5 0.181612,-0.03066 0.443543,-0.0022 0.726562,0.04102 C 76.526795,90.195805 74.800781,85 74.800781,85 c 0.282306,0.477292 0.588932,1.234614 0.894531,2.087891 -1.721727,-5.855492 -8.434271,-10.28711 -10.796874,-10.28711 z m 27.830078,7.519531 c -0.02044,0.448484 -0.0293,0.909663 -0.0293,1.378907 0,0.202024 -0.0045,0.384991 -0.0059,0.582031 6.19e-4,-0.133566 0.0059,-0.246977 0.0059,-0.382812 0.0098,-0.561352 0.02072,-1.070623 0.0293,-1.578126 z M 37,85.626953 c 1.7e-5,0.02725 0,0.04486 0,0.07227 0,0.0576 0.0038,0.10491 0.0039,0.162109 C 37.003697,85.780834 37,85.708224 37,85.626953 Z m 55.662109,2.375 c -0.01311,0.445995 -0.02613,0.8906 -0.04687,1.308594 0.0198,-0.420979 0.03476,-0.859339 0.04687,-1.308594 z m -55.617187,0.119141 c 0.0088,0.279488 0.01749,0.557816 0.0293,0.826172 -0.01211,-0.267471 -0.02022,-0.547636 -0.0293,-0.826172 z m 55.566406,1.279297 c -0.04842,0.94564 -0.121298,1.796572 -0.207031,2.605468 0.0023,9.49e-4 0.0054,0.0026 0.0078,0.0039 0.08248,-0.811299 0.153277,-1.663722 0.199219,-2.609375 z M 37.1875,90.828125 c 0.03021,0.384653 0.06817,0.736962 0.105469,1.095703 -0.03757,-0.35665 -0.07491,-0.713454 -0.105469,-1.095703 z m 0.173828,1.705078 c 0.183759,1.532605 0.43514,2.814808 0.740234,3.902344 0.0039,-0.0011 0.0078,-0.0029 0.01172,-0.0039 -0.31023,-1.082054 -0.565621,-2.362491 -0.751953,-3.898438 z m 54.84961,1.113281 c -0.01053,0.02603 -0.02166,0.05173 -0.03125,0.07813 -0.07498,0.478424 -0.154572,0.940465 -0.244141,1.365235 -0.009,0.08285 -0.01867,0.165688 -0.0293,0.248047 0.112118,-0.523506 0.21506,-1.084929 0.304688,-1.691407 z m -52.373047,6.386716 0.01953,0.0703 c 0.01467,0.004 0.02932,0.009 0.04297,0.0137 -0.02154,-0.0257 -0.04113,-0.0576 -0.0625,-0.084 z" />
  <path
     style="fill:#eecca1;fill-opacity:1;fill-rule:nonzero;stroke:none"
     d="m 78.898438,57.699219 c 0,0 7.902343,5.402343 12.203124,10.699219 4.296876,5.300781 4.199219,6.300781 4.199219,6.300781 l -3.101562,1.402343 c 0,0 -4.398438,-8.300781 -9.800781,-11.402343 C 76.898438,61.601562 76.300781,59 76.300781,59 Z m 0,0"
     id="path150" />
  <path
     style="fill:#422621;fill-opacity:1;fill-rule:nonzero;stroke:none"
     d="m 64.398438,65.199219 c 0,0 -0.699219,9.699219 -2.097657,11.601562 l 2.597657,-0.601562 z m 0,0"
     id="path156" />
  <path
     style="fill:#422621;fill-opacity:1;fill-rule:nonzero;stroke:none"
     d="m 65.101562,65.199219 c 0,0 0.699219,9.699219 2.097657,11.601562 l -2.597657,-0.601562 z m 0,0"
     id="path158" />
  <path
     style="fill:#7d4a3f;fill-opacity:1;fill-rule:nonzero;stroke:none"
     d="m 65.199219,78.601562 c 1.699219,0 4.699219,1.199219 7.402343,3.097657 C 70,78.800781 66.898438,76.800781 65.199219,76.800781 63.398438,76.800781 59.601562,79 56.898438,82.199219 59.699219,80 63.300781,78.601562 65.199219,78.601562 Z m 0,0"
     id="path164" />
  <path
     style="fill:#331711;fill-opacity:1;fill-rule:nonzero;stroke:none"
     d="M 67.484375,61.300781 C 67.277344,60.5 66.761719,59.9375 66.332031,60.050781 c -0.425781,0.109375 -0.605469,0.847657 -0.398437,1.652344 0.207031,0.800781 0.722656,1.363281 1.148437,1.25 0.429688,-0.109375 0.609375,-0.847656 0.402344,-1.652344 z m 0,0"
     id="path176" />
  <path
     style="fill:#331711;fill-opacity:1;fill-rule:nonzero;stroke:none"
     d="m 63.152344,61.742188 c 0.246094,-0.789063 0.101562,-1.535157 -0.320313,-1.667969 -0.421875,-0.132813 -0.964843,0.40625 -1.207031,1.195312 -0.246094,0.792969 -0.105469,1.539063 0.316406,1.671875 0.421875,0.128906 0.964844,-0.40625 1.210938,-1.199218 z m 0,0"
     id="path178" />
  <path
     style="fill:#eecca1;fill-opacity:1;fill-rule:nonzero;stroke:none"
     d="m 50,57.699219 c 0,0 -7.898438,5.402343 -12.199219,10.699219 -4.300781,5.300781 -4.199219,6.300781 -4.199219,6.300781 l 3.097657,1.402343 c 0,0 4.402343,-8.300781 9.800781,-11.402343 C 51.898438,61.601562 52.601562,59 52.601562,59 Z m 0,0"
     id="path186" />
  <path
     style="fill:#ccab8c;fill-opacity:1;fill-rule:nonzero;stroke:none"
     d="m 37.199219,73.199219 c 0,0 -4.699219,2.300781 -8.097657,0.902343 0,0 -0.101562,0 -0.101562,0 -3,-1.703124 -4.5,-6.800781 -4.5,-6.800781 0,0 3,9 12.699219,5.898438 z m 0,0"
     id="path196" />
  <path
     style="fill:#ccab8c;fill-opacity:1;fill-rule:nonzero;stroke:none"
     d="m 92,73.199219 c 0,0 4.699219,2.300781 8.10156,0.902343 4,-1.703124 4.59766,-6.800781 4.59766,-6.800781 0,0 -3,9 -12.69922,5.898438 z m 0,0"
     id="path198" />
  <path
     style="fill:#ccab8c;fill-opacity:1;fill-rule:nonzero;stroke:none"
     d="m 86.898438,41.199219 c 0.203124,0 0.300781,0.101562 0.402343,0.101562 0.09766,0 -0.101562,-0.101562 -0.402343,-0.101562 z m 0,0"
     id="path202" />
  <path
     style="fill:#ccab8c;fill-opacity:1;fill-rule:nonzero;stroke:none"
     d="m 39.101562,28.898438 c 0,0 -10.800781,13.601562 -12.402343,18.800781 C 25.101562,53 23.898438,74.699219 22.5,77.800781 l -5,-21.402343 9.199219,-22.296876 z m 0,0"
     id="path204" />
  <path
     style="fill:#ccab8c;fill-opacity:1;fill-rule:nonzero;stroke:none"
     d="m 89.898438,28.898438 c 0,0 10.800782,13.601562 12.402342,18.800781 1.59766,5.300781 2.80078,27 4.19922,30.101562 l 5,-21.402343 -9.19922,-22.296876 z m 0,0"
     id="path206" />
  <path
     style="fill:#543328;fill-opacity:1;fill-rule:nonzero;stroke:none"
     d="m 89.398438,28.898438 c 0,0 11.601562,9.703124 15.000002,20.902343 3.40234,11.199219 2,24.800781 4.60156,26.5 3.69922,2.398438 7.89844,-11.902343 9.30078,-13.402343 2.19922,-2.398438 9.5,-8.5 10,-9.597657 C 128.80078,52.199219 113.5,35.5 106.80078,32.199219 98.699219,28.398438 88.699219,28.101562 89.398438,28.898438 Z m 0,0"
     id="path208" />
  <path
     style="fill:#422621;fill-opacity:1;fill-rule:nonzero;stroke:none"
     d="m 99.300781,34.898438 c 0,0 13.699219,17.5 13.499999,39.300781 L 118.30078,63 c -0.10156,0 -4.90234,-14.300781 -18.999999,-28.101562 z m 0,0"
     id="path210" />
  <path
     style="fill:#543328;fill-opacity:1;fill-rule:nonzero;stroke:none"
     d="m 39.101562,28.898438 c 0,0 -11.601562,9.703124 -15,20.902343 C 20.699219,61 22.101562,74.601562 19.5,76.300781 15.800781,78.699219 11.601562,64.398438 10.199219,62.898438 8,60.5 0.699219,54.398438 0.199219,53.300781 -0.300781,52.199219 15,35.5 21.699219,32.199219 29.800781,28.398438 39.800781,28.101562 39.101562,28.898438 Z m 0,0"
     id="path212" />
  <path
     style="fill:#422621;fill-opacity:1;fill-rule:nonzero;stroke:none"
     d="m 29.199219,34.898438 c 0,0 -13.699219,17.5 -13.5,39.300781 L 10.300781,63 c 0,0 4.800781,-14.300781 18.898438,-28.101562 z m 0,0"
     id="path214" />
  <path
     style="fill:#ccab8c;fill-opacity:1;fill-rule:nonzero;stroke:none"
     d="m 21.800781,74.601562 c 0,0 1,5.398438 2.597657,7.097657 1.601562,1.699219 0.5,-1.300781 0.5,-1.300781 0,0 -1.699219,-0.898438 -1.398438,-7.796876 0.300781,-6.902343 -1.699219,2 -1.699219,2 z m 0,0"
     id="path216" />
  <path
     style="fill:#ccab8c;fill-opacity:1;fill-rule:nonzero;stroke:none"
     d="m 107.10156,74.601562 c 0,0 -1,5.398438 -2.60156,7.097657 -1.60156,1.699219 -0.5,-1.300781 -0.5,-1.300781 0,0 1.69922,-0.898438 1.39844,-7.796876 -0.29688,-6.902343 1.70312,2 1.70312,2 z m 0,0"
     id="path218" />
</svg>
