<?xml version="1.0" encoding="UTF-8" standalone="no"?>
<svg
   width="128px"
   height="128px"
   viewBox="0 0 128 128"
   version="1.1"
   id="svg233"
   sodipodi:docname="pug-original.svg"
   inkscape:version="1.1.2 (b8e25be8, 2022-02-05)"
   xmlns:inkscape="http://www.inkscape.org/namespaces/inkscape"
   xmlns:sodipodi="http://sodipodi.sourceforge.net/DTD/sodipodi-0.dtd"
   xmlns="http://www.w3.org/2000/svg"
   xmlns:svg="http://www.w3.org/2000/svg">
  <defs
     id="defs237" />
  <sodipodi:namedview
     id="namedview235"
     pagecolor="#ffffff"
     bordercolor="#666666"
     borderopacity="1.0"
     inkscape:pageshadow="2"
     inkscape:pageopacity="0.0"
     inkscape:pagecheckerboard="0"
     showgrid="false"
     inkscape:zoom="5.8046875"
     inkscape:cx="64"
     inkscape:cy="63.913863"
     inkscape:window-width="2560"
     inkscape:window-height="1298"
     inkscape:window-x="0"
     inkscape:window-y="25"
     inkscape:window-maximized="1"
     inkscape:current-layer="svg233" />
  <g
     id="surface1">
    <path
       style=" stroke:none;fill-rule:nonzero;fill:rgb(93.72549%,80%,63.921569%);fill-opacity:1;"
       d="M 107.398438 50.898438 C 107.199219 46.5 107.800781 42.601562 105.800781 39.300781 C 101 31.101562 89 26.300781 65 26.300781 L 65 27 C 65 27 64.5 27 64.5 27 C 64.5 27 65 27 65 27 L 65 26.300781 C 41 26.300781 28.398438 31.101562 23.601562 39.398438 C 21.699219 42.800781 21.898438 46.601562 21.601562 51 C 21.398438 54.5 19.800781 58.199219 20.5 62.199219 C 21.300781 67.398438 21.601562 72.601562 22.398438 77.398438 C 23 81.300781 28.398438 84.601562 28.898438 88.300781 C 30.300781 98.5 40.898438 103.199219 64.898438 103.199219 L 64.898438 104 L 64.300781 104 L 65 104 L 65 103.199219 C 89 103.199219 99.199219 98.5 100.5 88.300781 C 101 84.5 106 81.300781 106.601562 77.398438 C 107.398438 72.601562 107.699219 67.398438 108.5 62.199219 C 109.199219 58.199219 107.601562 54.398438 107.398438 50.898438 Z M 107.398438 50.898438 "
       id="path140" />
    <path
       style=" stroke:none;fill-rule:nonzero;fill:rgb(80%,67.45098%,55.294118%);fill-opacity:1;"
       d="M 64.601562 54.5 C 68.898438 54.601562 71.898438 57.300781 74.699219 59.800781 C 78 62.699219 83.601562 64.699219 85.898438 67.199219 C 88.199219 69.699219 91.199219 72.199219 92.300781 76.101562 C 93.398438 80 93.699219 85 93.699219 86.300781 C 93.699219 87.601562 94.398438 87.300781 96.398438 86.300781 C 101.101562 84 106.300781 77.800781 106.300781 77.800781 C 105.699219 81.699219 100.601562 85.199219 100.101562 88.898438 C 98.898438 99.101562 89 104 64.5 104 L 64.398438 104 L 65 104 "
       id="path142" />
    <path
       style=" stroke:none;fill-rule:nonzero;fill:rgb(80%,67.45098%,55.294118%);fill-opacity:1;"
       d="M 80.398438 46.699219 C 81.300781 49.800781 84.5 60.300781 78.300781 56.800781 C 78.300781 56.800781 80.898438 58.300781 82.5 64 C 84.199219 69.699219 88.300781 70.398438 88.300781 70.398438 C 88.300781 70.398438 95 71.699219 100 67.398438 C 104.199219 63.800781 104.898438 57.398438 103.101562 52.5 C 101.300781 47.699219 98.101562 46.199219 93.398438 45.199219 C 88.699219 44.101562 79.300781 43.199219 80.398438 46.699219 Z M 80.398438 46.699219 "
       id="path144" />
    <path
       style=" stroke:none;fill-rule:nonzero;fill:rgb(0%,0%,0%);fill-opacity:1;"
       d="M 101.101562 58.101562 C 101.101562 62.960938 97.160156 66.898438 92.300781 66.898438 C 87.441406 66.898438 83.5 62.960938 83.5 58.101562 C 83.5 53.238281 87.441406 49.300781 92.300781 49.300781 C 97.160156 49.300781 101.101562 53.238281 101.101562 58.101562 Z M 101.101562 58.101562 "
       id="path146" />
    <path
       style=" stroke:none;fill-rule:nonzero;fill:rgb(100%,100%,100%);fill-opacity:1;"
       d="M 92.300781 54.199219 C 92.300781 55.46875 91.269531 56.5 90 56.5 C 88.730469 56.5 87.699219 55.46875 87.699219 54.199219 C 87.699219 52.929688 88.730469 51.898438 90 51.898438 C 91.269531 51.898438 92.300781 52.929688 92.300781 54.199219 Z M 92.300781 54.199219 "
       id="path148" />
    <path
       style=" stroke:none;fill-rule:nonzero;fill:rgb(93.72549%,80%,63.921569%);fill-opacity:1;"
       d="M 78.898438 57.699219 C 78.898438 57.699219 86.800781 63.101562 91.101562 68.398438 C 95.398438 73.699219 95.300781 74.699219 95.300781 74.699219 L 92.199219 76.101562 C 92.199219 76.101562 87.800781 67.800781 82.398438 64.699219 C 76.898438 61.601562 76.300781 59 76.300781 59 Z M 78.898438 57.699219 "
       id="path150" />
    <path
       style=" stroke:none;fill-rule:nonzero;fill:rgb(80%,67.45098%,55.294118%);fill-opacity:1;"
       d="M 64.898438 54.5 C 60.601562 54.601562 57.398438 57.300781 54.5 59.800781 C 51.199219 62.699219 45.398438 64.699219 43.101562 67.199219 C 40.800781 69.699219 37.699219 72.199219 36.601562 76.101562 C 35.5 80 35.101562 85 35.101562 86.300781 C 35.101562 87.601562 35.300781 87.699219 32.398438 86.300781 C 27.699219 84.101562 22.5 77.800781 22.5 77.800781 C 23.101562 81.699219 28.199219 85.199219 28.699219 88.898438 C 30.101562 99.101562 40 104 64.5 104 L 65 104 "
       id="path152" />
    <path
       style=" stroke:none;fill-rule:nonzero;fill:rgb(33.72549%,20%,16.862745%);fill-opacity:1;"
       d="M 88.101562 71.398438 C 83.300781 65.5 75.601562 60 64.898438 60 L 64.800781 60 C 54.101562 60 46.398438 65.5 41.601562 71.398438 C 36.601562 77.5 37 79.898438 37 85.699219 C 37 106.699219 44.398438 100.699219 49.300781 103.300781 C 54.300781 105.800781 59.5 105 64.800781 105 L 64.898438 105 C 70.300781 105 75.398438 105.699219 80.398438 103.199219 C 85.300781 100.699219 92.699219 106.898438 92.699219 85.898438 C 92.800781 80.101562 93.101562 77.5 88.101562 71.398438 Z M 88.101562 71.398438 "
       id="path154" />
    <path
       style=" stroke:none;fill-rule:nonzero;fill:rgb(26.666667%,15.686275%,13.72549%);fill-opacity:1;"
       d="M 64.398438 65.199219 C 64.398438 65.199219 63.699219 74.898438 62.300781 76.800781 L 64.898438 76.199219 Z M 64.398438 65.199219 "
       id="path156" />
    <path
       style=" stroke:none;fill-rule:nonzero;fill:rgb(26.666667%,15.686275%,13.72549%);fill-opacity:1;"
       d="M 65.101562 65.199219 C 65.101562 65.199219 65.800781 74.898438 67.199219 76.800781 L 64.601562 76.199219 Z M 65.101562 65.199219 "
       id="path158" />
    <path
       style=" stroke:none;fill-rule:nonzero;fill:rgb(33.72549%,20%,16.862745%);fill-opacity:1;"
       d="M 56.699219 62.898438 C 55.699219 60.601562 59.300781 56.898438 65 56.800781 C 70.699219 56.800781 74.300781 60.5 73.300781 62.898438 C 72.300781 65.300781 68.699219 66 65 66.101562 C 61.398438 66 57.699219 65.300781 56.699219 62.898438 Z M 56.699219 62.898438 "
       id="path160" />
    <path
       style=" stroke:none;fill-rule:nonzero;fill:rgb(0%,0%,0%);fill-opacity:1;"
       d="M 65 65.199219 C 65 64.800781 68.398438 64.699219 70.199219 63.5 C 70.199219 63.5 66.5 64.699219 65.699219 64.199219 C 64.898438 63.800781 64.699219 62.601562 64.699219 62.601562 C 64.699219 62.601562 64.398438 63.800781 63.800781 64.199219 C 63.101562 64.601562 58.898438 63.5 58.898438 63.5 C 58.898438 63.5 64.5 64.898438 64.5 65.199219 C 64.5 65.5 64.398438 66.5 64.398438 67.199219 C 64.398438 69.699219 64.398438 75.898438 64.800781 76.398438 C 65.398438 77.300781 65.199219 69.699219 65.199219 67.199219 C 65.101562 66.398438 65.101562 65.601562 65 65.199219 Z M 65 65.199219 "
       id="path162" />
    <path
       style=" stroke:none;fill-rule:nonzero;fill:rgb(49.803922%,29.019608%,25.490196%);fill-opacity:1;"
       d="M 65.199219 78.601562 C 66.898438 78.601562 69.898438 79.800781 72.601562 81.699219 C 70 78.800781 66.898438 76.800781 65.199219 76.800781 C 63.398438 76.800781 59.601562 79 56.898438 82.199219 C 59.699219 80 63.300781 78.601562 65.199219 78.601562 Z M 65.199219 78.601562 "
       id="path164" />
    <path
       style=" stroke:none;fill-rule:nonzero;fill:rgb(26.666667%,15.686275%,13.72549%);fill-opacity:1;"
       d="M 64.5 96.300781 C 60.699219 96.300781 57 95.101562 53.601562 94.199219 C 52.898438 94 52.199219 94.5 51.5 94.300781 C 45.199219 92.300781 40.101562 88.898438 37 84.601562 C 37 84.898438 37 85.300781 37 85.601562 C 37 106.601562 44.398438 100.699219 49.300781 103.199219 C 54.300781 105.699219 59.5 104.898438 64.800781 104.898438 L 64.898438 104.898438 C 70.300781 104.898438 75.398438 105.601562 80.398438 103.101562 C 85.300781 100.601562 92.699219 106.699219 92.699219 85.699219 C 92.699219 84.898438 92.699219 84.101562 92.800781 83.398438 C 89.898438 88.101562 84.601562 91.800781 78 94 C 77.398438 94.199219 76 93.699219 75.398438 93.800781 C 71.800781 95 68.601562 96.300781 64.5 96.300781 Z M 64.5 96.300781 "
       id="path166" />
    <path
       style=" stroke:none;fill-rule:nonzero;fill:rgb(26.666667%,15.686275%,13.72549%);fill-opacity:1;"
       d="M 55 85 C 55 85 52.5 92.5 54.199219 95.800781 L 51.898438 94.800781 C 51.898438 94.800781 53.601562 87.199219 55 85 Z M 55 85 "
       id="path168" />
    <path
       style=" stroke:none;fill-rule:nonzero;fill:rgb(26.666667%,15.686275%,13.72549%);fill-opacity:1;"
       d="M 74.800781 85 C 74.800781 85 77.300781 92.5 75.601562 95.800781 L 77.898438 94.800781 C 77.898438 94.800781 76.101562 87.199219 74.800781 85 Z M 74.800781 85 "
       id="path170" />
    <path
       style=" stroke:none;fill-rule:nonzero;fill:rgb(80%,67.45098%,55.294118%);fill-opacity:1;"
       d="M 48.601562 46.699219 C 47.699219 49.800781 44.5 60.300781 50.699219 56.800781 C 50.699219 56.800781 48.101562 58.300781 46.5 64 C 44.898438 69.699219 40.699219 70.398438 40.699219 70.398438 C 40.699219 70.398438 34 71.699219 29 67.398438 C 24.800781 63.800781 24.101562 57.398438 25.898438 52.5 C 27.699219 47.601562 30.898438 46.199219 35.601562 45.199219 C 40.300781 44.101562 49.601562 43.199219 48.601562 46.699219 Z M 48.601562 46.699219 "
       id="path172" />
    <path
       style=" stroke:none;fill-rule:nonzero;fill:rgb(0%,0%,0%);fill-opacity:1;"
       d="M 64.898438 76.800781 C 67.601562 76.800781 76 82.601562 76.101562 89.699219 C 76.101562 89.601562 76.101562 89.5 76.101562 89.300781 C 76.101562 81.898438 69.300781 76 64.898438 76 C 60.5 76 53.699219 82 53.699219 89.300781 C 53.699219 89.398438 53.699219 89.5 53.699219 89.699219 C 53.800781 82.601562 62.199219 76.800781 64.898438 76.800781 Z M 64.898438 76.800781 "
       id="path174" />
    <path
       style=" stroke:none;fill-rule:nonzero;fill:rgb(20%,9.019608%,7.058824%);fill-opacity:1;"
       d="M 67.484375 61.300781 C 67.277344 60.5 66.761719 59.9375 66.332031 60.050781 C 65.90625 60.160156 65.726562 60.898438 65.933594 61.703125 C 66.140625 62.503906 66.65625 63.066406 67.082031 62.953125 C 67.511719 62.84375 67.691406 62.105469 67.484375 61.300781 Z M 67.484375 61.300781 "
       id="path176" />
    <path
       style=" stroke:none;fill-rule:nonzero;fill:rgb(20%,9.019608%,7.058824%);fill-opacity:1;"
       d="M 63.152344 61.742188 C 63.398438 60.953125 63.253906 60.207031 62.832031 60.074219 C 62.410156 59.941406 61.867188 60.480469 61.625 61.269531 C 61.378906 62.0625 61.519531 62.808594 61.941406 62.941406 C 62.363281 63.070312 62.90625 62.535156 63.152344 61.742188 Z M 63.152344 61.742188 "
       id="path178" />
    <path
       style=" stroke:none;fill-rule:nonzero;fill:rgb(0%,0%,0%);fill-opacity:1;"
       d="M 46 58.101562 C 46 62.960938 42.058594 66.898438 37.199219 66.898438 C 32.339844 66.898438 28.398438 62.960938 28.398438 58.101562 C 28.398438 53.238281 32.339844 49.300781 37.199219 49.300781 C 42.058594 49.300781 46 53.238281 46 58.101562 Z M 46 58.101562 "
       id="path180" />
    <path
       style=" stroke:none;fill-rule:nonzero;fill:rgb(100%,100%,100%);fill-opacity:1;"
       d="M 41.800781 54.199219 C 41.800781 55.46875 40.769531 56.5 39.5 56.5 C 38.230469 56.5 37.199219 55.46875 37.199219 54.199219 C 37.199219 52.929688 38.230469 51.898438 39.5 51.898438 C 40.769531 51.898438 41.800781 52.929688 41.800781 54.199219 Z M 41.800781 54.199219 "
       id="path182" />
    <path
       style=" stroke:none;fill-rule:nonzero;fill:rgb(49.803922%,29.019608%,25.490196%);fill-opacity:1;"
       d="M 67.5 58.199219 C 67.5 58.101562 65.199219 59.199219 64.601562 59.300781 C 64 59.199219 61.699219 58.101562 61.699219 58.199219 C 61.699219 58.199219 63.601562 58.199219 64.601562 58.199219 C 65.601562 58.199219 67.5 58.199219 67.5 58.199219 Z M 67.5 58.199219 "
       id="path184" />
    <path
       style=" stroke:none;fill-rule:nonzero;fill:rgb(93.72549%,80%,63.921569%);fill-opacity:1;"
       d="M 50 57.699219 C 50 57.699219 42.101562 63.101562 37.800781 68.398438 C 33.5 73.699219 33.601562 74.699219 33.601562 74.699219 L 36.699219 76.101562 C 36.699219 76.101562 41.101562 67.800781 46.5 64.699219 C 51.898438 61.601562 52.601562 59 52.601562 59 Z M 50 57.699219 "
       id="path186" />
    <path
       style=" stroke:none;fill-rule:nonzero;fill:rgb(80%,67.45098%,55.294118%);fill-opacity:1;"
       d="M 32.699219 41.699219 C 32.699219 41.699219 30 49.101562 24 52.199219 C 24 52.199219 33.398438 51.101562 32.699219 41.699219 Z M 32.699219 41.699219 "
       id="path188" />
    <path
       style=" stroke:none;fill-rule:nonzero;fill:rgb(80%,67.45098%,55.294118%);fill-opacity:1;"
       d="M 95.800781 41.699219 C 95.800781 41.699219 98.5 49.101562 104.5 52.199219 C 104.5 52.199219 95.101562 51.101562 95.800781 41.699219 Z M 95.800781 41.699219 "
       id="path190" />
    <path
       style=" stroke:none;fill-rule:nonzero;fill:rgb(80%,67.45098%,55.294118%);fill-opacity:1;"
       d="M 78.699219 55.5 C 78.699219 55.5 72.800781 49.300781 64.898438 49.101562 C 64.800781 49.101562 65.101562 49.101562 65 49.101562 C 64.898438 49.101562 65.101562 49.101562 65.101562 49.101562 C 57.101562 49.300781 51.300781 55.5 51.300781 55.5 C 58.199219 50.699219 64.101562 50.800781 65.101562 50.800781 C 65 50.800781 71.800781 50.699219 78.699219 55.5 Z M 78.699219 55.5 "
       id="path192" />
    <path
       style=" stroke:none;fill-rule:nonzero;fill:rgb(80%,67.45098%,55.294118%);fill-opacity:1;"
       d="M 71.800781 42.5 C 71.800781 42.5 68.800781 38.300781 64.800781 38.199219 C 64.800781 38.199219 64.898438 38.199219 64.898438 38.199219 C 64.898438 38.199219 65 38.199219 65 38.199219 C 62 38.300781 58.101562 42.5 58.101562 42.5 C 61.5 39.199219 65 39.300781 65 39.300781 C 65 39.300781 68.300781 39.199219 71.800781 42.5 Z M 71.800781 42.5 "
       id="path194" />
    <path
       style=" stroke:none;fill-rule:nonzero;fill:rgb(80%,67.45098%,55.294118%);fill-opacity:1;"
       d="M 37.199219 73.199219 C 37.199219 73.199219 32.5 75.5 29.101562 74.101562 C 29.101562 74.101562 29 74.101562 29 74.101562 C 26 72.398438 24.5 67.300781 24.5 67.300781 C 24.5 67.300781 27.5 76.300781 37.199219 73.199219 Z M 37.199219 73.199219 "
       id="path196" />
    <path
       style=" stroke:none;fill-rule:nonzero;fill:rgb(80%,67.45098%,55.294118%);fill-opacity:1;"
       d="M 92 73.199219 C 92 73.199219 96.699219 75.5 100.101562 74.101562 C 104.101562 72.398438 104.699219 67.300781 104.699219 67.300781 C 104.699219 67.300781 101.699219 76.300781 92 73.199219 Z M 92 73.199219 "
       id="path198" />
    <path
       style=" stroke:none;fill-rule:nonzero;fill:rgb(80%,67.45098%,55.294118%);fill-opacity:1;"
       d="M 42.601562 41.199219 C 45.199219 40.699219 49.5 40.601562 52.898438 41.699219 C 57.199219 43.199219 53.699219 48.699219 54.601562 49 C 55.5 49.300781 56.699219 45.199219 64.699219 45.601562 C 72.800781 46 73.699219 49.601562 74.800781 49 C 75.898438 48.398438 73.699219 39 85.800781 41.199219 C 85.800781 41.199219 73.101562 37.800781 73.699219 47 C 73.699219 47 66.398438 41.398438 56.199219 46.398438 C 56.300781 46.398438 58.898438 37.800781 42.601562 41.199219 Z M 42.601562 41.199219 "
       id="path200" />
    <path
       style=" stroke:none;fill-rule:nonzero;fill:rgb(80%,67.45098%,55.294118%);fill-opacity:1;"
       d="M 86.898438 41.199219 C 87.101562 41.199219 87.199219 41.300781 87.300781 41.300781 C 87.398438 41.300781 87.199219 41.199219 86.898438 41.199219 Z M 86.898438 41.199219 "
       id="path202" />
    <path
       style=" stroke:none;fill-rule:nonzero;fill:rgb(80%,67.45098%,55.294118%);fill-opacity:1;"
       d="M 39.101562 28.898438 C 39.101562 28.898438 28.300781 42.5 26.699219 47.699219 C 25.101562 53 23.898438 74.699219 22.5 77.800781 L 17.5 56.398438 L 26.699219 34.101562 Z M 39.101562 28.898438 "
       id="path204" />
    <path
       style=" stroke:none;fill-rule:nonzero;fill:rgb(80%,67.45098%,55.294118%);fill-opacity:1;"
       d="M 89.898438 28.898438 C 89.898438 28.898438 100.699219 42.5 102.300781 47.699219 C 103.898438 53 105.101562 74.699219 106.5 77.800781 L 111.5 56.398438 L 102.300781 34.101562 Z M 89.898438 28.898438 "
       id="path206" />
    <path
       style=" stroke:none;fill-rule:nonzero;fill:rgb(33.72549%,20%,16.862745%);fill-opacity:1;"
       d="M 89.398438 28.898438 C 89.398438 28.898438 101 38.601562 104.398438 49.800781 C 107.800781 61 106.398438 74.601562 109 76.300781 C 112.699219 78.699219 116.898438 64.398438 118.300781 62.898438 C 120.5 60.5 127.800781 54.398438 128.300781 53.300781 C 128.800781 52.199219 113.5 35.5 106.800781 32.199219 C 98.699219 28.398438 88.699219 28.101562 89.398438 28.898438 Z M 89.398438 28.898438 "
       id="path208" />
    <path
       style=" stroke:none;fill-rule:nonzero;fill:rgb(26.666667%,15.686275%,13.72549%);fill-opacity:1;"
       d="M 99.300781 34.898438 C 99.300781 34.898438 113 52.398438 112.800781 74.199219 L 118.300781 63 C 118.199219 63 113.398438 48.699219 99.300781 34.898438 Z M 99.300781 34.898438 "
       id="path210" />
    <path
       style=" stroke:none;fill-rule:nonzero;fill:rgb(33.72549%,20%,16.862745%);fill-opacity:1;"
       d="M 39.101562 28.898438 C 39.101562 28.898438 27.5 38.601562 24.101562 49.800781 C 20.699219 61 22.101562 74.601562 19.5 76.300781 C 15.800781 78.699219 11.601562 64.398438 10.199219 62.898438 C 8 60.5 0.699219 54.398438 0.199219 53.300781 C -0.300781 52.199219 15 35.5 21.699219 32.199219 C 29.800781 28.398438 39.800781 28.101562 39.101562 28.898438 Z M 39.101562 28.898438 "
       id="path212" />
    <path
       style=" stroke:none;fill-rule:nonzero;fill:rgb(26.666667%,15.686275%,13.72549%);fill-opacity:1;"
       d="M 29.199219 34.898438 C 29.199219 34.898438 15.5 52.398438 15.699219 74.199219 L 10.300781 63 C 10.300781 63 15.101562 48.699219 29.199219 34.898438 Z M 29.199219 34.898438 "
       id="path214" />
    <path
       style=" stroke:none;fill-rule:nonzero;fill:rgb(80%,67.45098%,55.294118%);fill-opacity:1;"
       d="M 21.800781 74.601562 C 21.800781 74.601562 22.800781 80 24.398438 81.699219 C 26 83.398438 24.898438 80.398438 24.898438 80.398438 C 24.898438 80.398438 23.199219 79.5 23.5 72.601562 C 23.800781 65.699219 21.800781 74.601562 21.800781 74.601562 Z M 21.800781 74.601562 "
       id="path216" />
    <path
       style=" stroke:none;fill-rule:nonzero;fill:rgb(80%,67.45098%,55.294118%);fill-opacity:1;"
       d="M 107.101562 74.601562 C 107.101562 74.601562 106.101562 80 104.5 81.699219 C 102.898438 83.398438 104 80.398438 104 80.398438 C 104 80.398438 105.699219 79.5 105.398438 72.601562 C 105.101562 65.699219 107.101562 74.601562 107.101562 74.601562 Z M 107.101562 74.601562 "
       id="path218" />
    <path
       style=" stroke:none;fill-rule:nonzero;fill:rgb(26.666667%,15.686275%,13.72549%);fill-opacity:1;"
       d="M 55.300781 70.5 C 55.300781 70.941406 54.941406 71.300781 54.5 71.300781 C 54.058594 71.300781 53.699219 70.941406 53.699219 70.5 C 53.699219 70.058594 54.058594 69.699219 54.5 69.699219 C 54.941406 69.699219 55.300781 70.058594 55.300781 70.5 Z M 55.300781 70.5 "
       id="path220" />
    <path
       style=" stroke:none;fill-rule:nonzero;fill:rgb(26.666667%,15.686275%,13.72549%);fill-opacity:1;"
       d="M 50.699219 75.300781 C 50.699219 75.742188 50.34375 76.101562 49.898438 76.101562 C 49.457031 76.101562 49.101562 75.742188 49.101562 75.300781 C 49.101562 74.859375 49.457031 74.5 49.898438 74.5 C 50.34375 74.5 50.699219 74.859375 50.699219 75.300781 Z M 50.699219 75.300781 "
       id="path222" />
    <path
       style=" stroke:none;fill-rule:nonzero;fill:rgb(26.666667%,15.686275%,13.72549%);fill-opacity:1;"
       d="M 49.199219 70.5 C 49.199219 70.941406 48.84375 71.300781 48.398438 71.300781 C 47.957031 71.300781 47.601562 70.941406 47.601562 70.5 C 47.601562 70.058594 47.957031 69.699219 48.398438 69.699219 C 48.84375 69.699219 49.199219 70.058594 49.199219 70.5 Z M 49.199219 70.5 "
       id="path224" />
    <path
       style=" stroke:none;fill-rule:nonzero;fill:rgb(26.666667%,15.686275%,13.72549%);fill-opacity:1;"
       d="M 74.800781 70.5 C 74.800781 70.941406 74.441406 71.300781 74 71.300781 C 73.558594 71.300781 73.199219 70.941406 73.199219 70.5 C 73.199219 70.058594 73.558594 69.699219 74 69.699219 C 74.441406 69.699219 74.800781 70.058594 74.800781 70.5 Z M 74.800781 70.5 "
       id="path226" />
    <path
       style=" stroke:none;fill-rule:nonzero;fill:rgb(26.666667%,15.686275%,13.72549%);fill-opacity:1;"
       d="M 79.398438 75.300781 C 79.398438 75.742188 79.042969 76.101562 78.601562 76.101562 C 78.15625 76.101562 77.800781 75.742188 77.800781 75.300781 C 77.800781 74.859375 78.15625 74.5 78.601562 74.5 C 79.042969 74.5 79.398438 74.859375 79.398438 75.300781 Z M 79.398438 75.300781 "
       id="path228" />
    <path
       style=" stroke:none;fill-rule:nonzero;fill:rgb(26.666667%,15.686275%,13.72549%);fill-opacity:1;"
       d="M 80.898438 70.5 C 80.898438 70.941406 80.542969 71.300781 80.101562 71.300781 C 79.65625 71.300781 79.300781 70.941406 79.300781 70.5 C 79.300781 70.058594 79.65625 69.699219 80.101562 69.699219 C 80.542969 69.699219 80.898438 70.058594 80.898438 70.5 Z M 80.898438 70.5 "
       id="path230" />
  </g>
</svg>
